# This file uses centimeters as units for non-parametric coordinates.

mtllib Phase1_art_silkTreePlane.mtl
g default
v -8.299468 -1.172635 -1.026388
v -6.639575 -1.174283 -0.835531
v -4.979681 -1.175930 -0.644673
v -3.319787 -1.177577 -0.453816
v 8.299468 -1.189108 0.882184
v -8.299468 3.839671 -0.983127
v -6.639575 3.838024 -0.792270
v -4.979681 3.836376 -0.601412
v -3.319787 3.834729 -0.410555
v 8.299468 3.823198 0.925445
v -8.299468 5.510440 -0.968706
v -6.639575 5.508792 -0.777849
v -4.979681 5.507145 -0.586992
v -3.319787 5.505498 -0.396135
v 8.299468 5.493967 0.939866
v -8.299468 7.181208 -0.954286
v -6.639575 7.179561 -0.763429
v -4.979681 7.177914 -0.572572
v -3.319787 7.176266 -0.381714
v 8.299468 7.164735 0.954286
v -8.299468 15.535052 -0.882184
v -6.639575 15.533405 -0.691327
v -4.979681 15.531757 -0.500470
v -3.319787 15.530110 -0.309613
v 8.299468 15.518579 1.026388
vt 0.000000 0.000000
vt 0.100000 0.000000
vt 0.200000 0.000000
vt 0.300000 0.000000
vt 1.000000 0.000000
vt 0.000000 0.300000
vt 0.100000 0.300000
vt 0.200000 0.300000
vt 0.300000 0.300000
vt 1.000000 0.300000
vt 0.000000 0.400000
vt 0.100000 0.400000
vt 0.200000 0.400000
vt 0.300000 0.400000
vt 1.000000 0.400000
vt 0.000000 0.500000
vt 0.100000 0.500000
vt 0.200000 0.500000
vt 0.300000 0.500000
vt 1.000000 0.500000
vt 0.000000 1.000000
vt 0.100000 1.000000
vt 0.200000 1.000000
vt 0.300000 1.000000
vt 1.000000 1.000000
vn -0.114233 -0.008574 0.993417
vn -0.114233 -0.008574 0.993417
vn -0.114233 -0.008574 0.993417
vn -0.114233 -0.008574 0.993417
vn -0.114233 -0.008574 0.993417
vn -0.114233 -0.008574 0.993417
vn -0.114233 -0.008574 0.993417
vn -0.114233 -0.008574 0.993417
vn -0.114233 -0.008574 0.993417
vn -0.114233 -0.008574 0.993417
vn -0.114233 -0.008574 0.993417
vn -0.114233 -0.008574 0.993417
vn -0.114233 -0.008574 0.993417
vn -0.114233 -0.008574 0.993417
vn -0.114233 -0.008574 0.993417
vn -0.114233 -0.008574 0.993417
vn -0.114233 -0.008574 0.993417
vn -0.114233 -0.008574 0.993417
vn -0.114233 -0.008574 0.993417
vn -0.114233 -0.008574 0.993417
vn -0.114233 -0.008574 0.993417
vn -0.114233 -0.008574 0.993417
vn -0.114233 -0.008574 0.993417
vn -0.114233 -0.008574 0.993417
vn -0.114233 -0.008574 0.993417
s 1
g pPlane1
usemtl lambert2SG
f 1/1/1 2/2/2 7/7/3 6/6/4
f 2/2/2 3/3/5 8/8/6 7/7/3
f 3/3/5 4/4/7 9/9/8 8/8/6
f 4/4/7 5/5/9 10/10/10 9/9/8
f 6/6/4 7/7/3 12/12/11 11/11/12
f 7/7/3 8/8/6 13/13/13 12/12/11
f 8/8/6 9/9/8 14/14/14 13/13/13
f 9/9/8 10/10/10 15/15/15 14/14/14
f 11/11/12 12/12/11 17/17/16 16/16/17
f 12/12/11 13/13/13 18/18/18 17/17/16
f 13/13/13 14/14/14 19/19/19 18/18/18
f 14/14/14 15/15/15 20/20/20 19/19/19
f 16/16/17 17/17/16 22/22/21 21/21/22
f 17/17/16 18/18/18 23/23/23 22/22/21
f 18/18/18 19/19/19 24/24/24 23/23/23
f 19/19/19 20/20/20 25/25/25 24/24/24
g default
v -0.958596 -1.187650 -8.292461
v -0.752462 -1.186294 -6.634394
v -0.546329 -1.184939 -4.976328
v -0.340196 -1.183583 -3.318262
v 1.102736 -1.174094 8.288201
v -1.001838 3.824656 -8.291183
v -0.795705 3.826012 -6.633117
v -0.589571 3.827368 -4.975051
v -0.383438 3.828723 -3.316984
v 1.059494 3.838213 8.289479
v -1.016252 5.495425 -8.290757
v -0.810119 5.496781 -6.632691
v -0.603985 5.498136 -4.974625
v -0.397852 5.499492 -3.316558
v 1.045080 5.508981 8.289905
v -1.030666 7.166194 -8.290331
v -0.824533 7.167549 -6.632265
v -0.618399 7.168905 -4.974199
v -0.412266 7.170261 -3.316132
v 1.030666 7.179750 8.290331
v -1.102736 15.520037 -8.288201
v -0.896603 15.521393 -6.630135
v -0.690470 15.522749 -4.972069
v -0.484336 15.524104 -3.314002
v 0.958596 15.533594 8.292461
vt 0.000000 0.000000
vt 0.100000 0.000000
vt 0.200000 0.000000
vt 0.300000 0.000000
vt 1.000000 0.000000
vt 0.000000 0.300000
vt 0.100000 0.300000
vt 0.200000 0.300000
vt 0.300000 0.300000
vt 1.000000 0.300000
vt 0.000000 0.400000
vt 0.100000 0.400000
vt 0.200000 0.400000
vt 0.300000 0.400000
vt 1.000000 0.400000
vt 0.000000 0.500000
vt 0.100000 0.500000
vt 0.200000 0.500000
vt 0.300000 0.500000
vt 1.000000 0.500000
vt 0.000000 1.000000
vt 0.100000 1.000000
vt 0.200000 1.000000
vt 0.300000 1.000000
vt 1.000000 1.000000
vn -0.992323 -0.008592 0.123374
vn -0.992323 -0.008592 0.123374
vn -0.992323 -0.008592 0.123374
vn -0.992323 -0.008592 0.123374
vn -0.992323 -0.008592 0.123374
vn -0.992323 -0.008592 0.123374
vn -0.992323 -0.008592 0.123374
vn -0.992323 -0.008592 0.123374
vn -0.992323 -0.008592 0.123374
vn -0.992323 -0.008592 0.123374
vn -0.992323 -0.008592 0.123374
vn -0.992323 -0.008592 0.123374
vn -0.992323 -0.008592 0.123374
vn -0.992323 -0.008592 0.123374
vn -0.992323 -0.008592 0.123374
vn -0.992323 -0.008592 0.123374
vn -0.992323 -0.008592 0.123374
vn -0.992323 -0.008592 0.123374
vn -0.992323 -0.008592 0.123374
vn -0.992323 -0.008592 0.123374
vn -0.992323 -0.008592 0.123374
vn -0.992323 -0.008592 0.123374
vn -0.992323 -0.008592 0.123374
vn -0.992323 -0.008592 0.123374
vn -0.992323 -0.008592 0.123374
s 1
g pasted__pPlane1 group
usemtl pasted__lambert2SG
f 26/26/26 27/27/27 32/32/28 31/31/29
f 27/27/27 28/28/30 33/33/31 32/32/28
f 28/28/30 29/29/32 34/34/33 33/33/31
f 29/29/32 30/30/34 35/35/35 34/34/33
f 31/31/29 32/32/28 37/37/36 36/36/37
f 32/32/28 33/33/31 38/38/38 37/37/36
f 33/33/31 34/34/33 39/39/39 38/38/38
f 34/34/33 35/35/35 40/40/40 39/39/39
f 36/36/37 37/37/36 42/42/41 41/41/42
f 37/37/36 38/38/38 43/43/43 42/42/41
f 38/38/38 39/39/39 44/44/44 43/43/43
f 39/39/39 40/40/40 45/45/45 44/44/44
f 41/41/42 42/42/41 47/47/46 46/46/47
f 42/42/41 43/43/43 48/48/48 47/47/46
f 43/43/43 44/44/44 49/49/49 48/48/48
f 44/44/44 45/45/45 50/50/50 49/49/49
